Coordinates
version=1
nRows=28
nColumns=23
inDegrees=yes

Units are S.I. units (second, meters, Newtons, ...)
If the header above contains a line with 'inDegrees', this indicates whether rotational values are in degrees (yes) or radians (no).

endheader
time	pelvis_tilt	pelvis_list	pelvis_rotation	pelvis_tx	pelvis_ty	pelvis_tz	hip_flexion_r	hip_adduction_r	hip_rotation_r	knee_angle_r	knee_angle_r_beta	ankle_angle_r	subtalar_angle_r	mtp_angle_r	hip_flexion_l	hip_adduction_l	hip_rotation_l	knee_angle_l	knee_angle_l_beta	ankle_angle_l	subtalar_angle_l	mtp_angle_l
      7.50000000	     -3.26623153	     -0.22464440	     -3.28138296	      2.32621961	      0.96358004	      1.09974251	    -14.32503786	      1.43776178	      0.57055753	     17.88350357	      0.31212602	     -2.08249816	      4.42785608	      0.00000000	     39.41007657	     -1.02612373	     -3.76159219	     86.19165014	      1.50432808	      3.25679856	    -18.38536099	      0.00000000
      7.50666667	     -4.15527913	      0.53275683	     -2.85791114	      2.32840822	      0.96678660	      1.09921595	    -14.95428967	      0.68204253	     -0.26073058	     16.96415674	      0.29608039	     -5.19061068	      4.36181973	      0.00000000	     40.51177027	     -0.09447802	     -3.90222087	     82.12098226	      1.43328153	      3.59175728	    -18.81101208	      0.00000000
      7.51333333	     -5.23219346	      1.10645191	     -2.65898377	      2.33027631	      0.96960933	      1.09897798	    -15.04307258	      0.07551524	     -0.93140155	     16.71220495	      0.29168300	     -7.78080383	      4.46559183	      0.00000000	     41.67508966	      0.41224766	     -4.20739244	     77.92184633	      1.35999278	      4.09405044	    -18.60323720	      0.00000000
      7.52000000	     -5.85907473	      1.66553781	     -2.04119385	      2.33238579	      0.97259967	      1.09799137	    -15.63320854	     -0.42800135	     -2.01072238	     16.56702607	      0.28914915	    -10.16694467	      4.22211308	      0.00000000	     42.19871460	      1.34289394	     -4.05596946	     73.47408431	      1.28236469	      4.43113007	    -18.36297139	      0.00000000
      7.52666667	     -6.74242986	      2.06075063	     -1.67863153	      2.33409556	      0.97499728	      1.09732393	    -15.56166561	     -0.80058644	     -2.75931862	     17.21002028	      0.30037152	    -11.88359662	      4.01596120	      0.00000000	     42.86035154	      1.86523277	     -4.08956876	     68.90720411	      1.20265759	      4.97083740	    -17.41726692	      0.00000000
      7.53333333	     -7.41849559	      2.42853166	     -1.22919737	      2.33572514	      0.97719737	      1.09648503	    -15.52193191	     -1.13698226	     -3.63981715	     18.33915926	      0.32007871	    -13.04230295	      3.78032209	      0.00000000	     43.14914150	      2.45894270	     -4.03060167	     64.17267124	      1.12002440	      5.61897965	    -16.01502287	      0.00000000
      7.54000000	     -8.03384986	      2.71121840	     -0.84543942	      2.33725080	      0.97900672	      1.09566430	    -15.32905141	     -1.40403342	     -4.40895229	     19.98573879	      0.34881695	    -13.61728946	      3.63596106	      0.00000000	     43.22402451	      2.94335577	     -3.97816885	     59.31534331	      1.03524804	      6.37304717	    -14.19673399	      0.00000000
      7.54666667	     -8.54619664	      2.94688005	     -0.47772029	      2.33857636	      0.98043940	      1.09480160	    -15.06519690	     -1.61046262	     -5.03661303	     22.05291115	      0.38489591	    -13.74223171	      3.28622470	      0.00000000	     43.06094512	      3.43393030	     -3.83542107	     54.35934983	      0.94874963	      7.13952774	    -12.19156430	      0.00000000
      7.55333333	     -8.97440305	      3.12672312	     -0.18867272	      2.33979410	      0.98134093	      1.09405437	    -14.63692705	     -1.88663471	     -5.96360347	     24.69980525	      0.43109293	    -13.31819683	      3.68339133	      0.00000000	     42.70521263	      3.77874543	     -3.83678572	     49.42616708	      0.86264935	      8.14387580	     -9.54828231	      0.00000000
      7.56000000	     -9.26234131	      3.29720231	      0.10692976	      2.34088505	      0.98188859	      1.09320969	    -14.25757385	     -2.12973956	     -6.70347917	     27.58302060	      0.48141453	    -12.69934201	      3.58952789	      0.00000000	     42.07341197	      4.25692639	     -3.56339426	     44.44906403	      0.77578252	      8.98476560	     -7.27029446	      0.00000000
      7.56666667	     -9.40636309	      3.35340029	      0.46377695	      2.34181031	      0.98213658	      1.09222559	    -13.97733451	     -2.16629917	     -7.18208333	     30.55944203	      0.53336288	    -12.13671162	      2.74427472	      0.00000000	     41.18944220	      4.79064799	     -2.86381205	     39.51702840	      0.68970226	      9.74092183	     -5.38241422	      0.00000000
      7.57333333	     -9.51221530	      3.56545538	      0.70458255	      2.34255680	      0.98175425	      1.09131191	    -13.46097162	     -2.72073831	     -8.46549945	     34.17451156	      0.59645775	    -11.21770954	      3.17868673	      0.00000000	     40.15187373	      5.40606561	     -2.17601195	     34.64866790	      0.60473334	     10.33781606	     -3.79125691	      0.00000000
      7.58000000	     -9.45766283	      3.61085904	      0.95025136	      2.34314669	      0.98116189	      1.09045009	    -13.09643589	     -2.96579853	     -9.22979625	     37.72606303	      0.65844401	    -10.53902161	      2.46769571	      0.00000000	     38.88463506	      5.90172668	     -1.10984072	     30.01402855	      0.52384362	     10.90642828	     -2.51309939	      0.00000000
      7.58666667	     -9.35326438	      3.73990415	      1.32920768	      2.34355412	      0.98007864	      1.08935437	    -12.67862123	     -3.46898255	    -10.49409836	     41.57880731	      0.72568709	     -9.78542430	      2.24486162	      0.00000000	     37.38104167	      6.70790308	      0.95429654	     25.37999365	      0.44296445	     10.92373176	     -2.86871429	      0.00000000
      7.59333333	     -9.12549565	      3.59638608	      1.61921292	      2.34381978	      0.97866991	      1.08863938	    -12.30493301	     -3.51933170	    -11.11246355	     45.39716117	      0.79232993	     -9.30999026	      0.94899604	      0.00000000	     35.96709867	      6.89220580	      2.24844560	     21.65130245	      0.37788652	     11.49256117	     -1.73523111	      0.00000000
      7.60000000	     -8.73895526	      3.65226628	      1.95133913	      2.34395793	      0.97720206	      1.08789289	    -12.02777426	     -3.88925389	    -11.99098658	     49.35539507	      0.86141415	     -8.92243293	     -0.12050212	      0.00000000	     34.00508194	      7.44403371	      4.96028364	     17.57608170	      0.30676050	     10.78546402	     -3.62985434	      0.00000000
      7.60666667	     -8.38202880	      3.54491956	      2.23173396	      2.34391025	      0.97506818	      1.08733835	    -11.58289769	     -3.99635484	    -12.47712275	     53.40856766	      0.93215535	     -8.73712976	     -1.90173838	      0.00000000	     32.61634627	      7.44239876	      5.86928259	     15.02937827	      0.26231214	     10.97907781	     -2.85900380	      0.00000000
      7.61333333	     -7.86676250	      3.39267726	      2.56747053	      2.34362340	      0.97287657	      1.08678646	    -11.21198188	     -3.95451489	    -12.81510518	     57.45780603	      1.00282790	     -8.75387314	     -4.01241244	      0.00000000	     31.06328784	      7.44273841	      7.23338348	     12.92749182	      0.22562730	     10.63973486	     -3.39735155	      0.00000000
      7.62000000	     -7.41777855	      3.36335253	      3.09507330	      2.34319080	      0.96999942	      1.08579980	    -10.71829219	     -4.12340259	    -13.44602473	     61.64425176	      1.07589516	     -8.62352093	     -5.87831903	      0.00000000	     30.00321709	      7.56130340	      7.58766686	     12.10011128	      0.21118678	     10.73352748	     -2.74617011	      0.00000000
      7.62666667	     -6.91685322	      3.47082747	      3.54301075	      2.34252224	      0.96683342	      1.08484582	    -10.15459276	     -4.40878063	    -13.85599702	     65.90844625	      1.15031939	     -8.67203289	     -8.03504597	      0.00000000	     29.05537008	      7.75069118	      7.47395080	     11.99458232	      0.20934495	     10.36487506	     -2.45654312	      0.00000000
      7.63333333	     -6.66216244	      3.55920042	      3.90322117	      2.34147174	      0.96299113	      1.08403677	     -9.14573741	     -4.57871146	    -13.90358792	     70.25803252	      1.22623399	     -8.90931745	    -10.56314073	      0.00000000	     28.69894415	      7.87338492	      6.82000727	     12.88827816	      0.22494289	      9.93237784	     -2.07237494	      0.00000000
      7.64000000	     -6.34001544	      3.82997439	      4.43101636	      2.34031012	      0.95865963	      1.08282676	     -8.21621308	     -5.03022716	    -14.23045127	     74.63005314	      1.30254015	     -8.84901075	    -12.56708640	      0.00000000	     28.51138850	      8.22186660	      5.78187155	     14.62501096	      0.25525459	      9.51093932	     -1.58800371	      0.00000000
      7.64666667	     -6.07479161	      4.15802756	      4.96979950	      2.33893613	      0.95380320	      1.08161582	     -7.14889333	     -5.54060987	    -14.47980271	     79.00735346	      1.37893845	     -8.61516054	    -14.38813575	      0.00000000	     28.54293970	      8.62588766	      4.74383674	     16.96754903	      0.29613960	      8.80469542	     -1.60932652	      0.00000000
      7.65333333	     -5.79600034	      4.50020170	      5.53182955	      2.33738402	      0.94849011	      1.08031740	     -6.03801015	     -6.06736775	    -14.67700128	     83.34931003	      1.45471989	     -8.26830607	    -15.88267360	      0.00000000	     28.79813810	      8.97777244	      3.39553063	     20.04515755	      0.34985400	      8.37637556	     -1.40366956	      0.00000000
      7.66000000	     -5.48491451	      4.87780609	      6.07544769	      2.33565521	      0.94283031	      1.07915384	     -4.89698429	     -6.61875480	    -14.77743904	     87.62985371	      1.52942947	     -7.79059038	    -17.08701750	      0.00000000	     29.10217240	      9.31374204	      2.14764831	     23.51037090	      0.41033338	      8.14166599	     -1.35657856	      0.00000000
      7.66666667	     -5.21823401	      5.22351563	      6.58791037	      2.33379200	      0.93681405	      1.07813232	     -3.62682642	     -7.12727161	    -14.75326965	     91.82860595	      1.60271152	     -7.17866415	    -17.93873656	      0.00000000	     29.49121839	      9.57728102	      1.06852768	     27.22441584	      0.47515569	      8.21527538	     -1.39787731	      0.00000000
      7.67333333	     -4.14694193	      5.77450603	      7.18787428	      2.33203192	      0.93190769	      1.07705921	     -3.33573179	     -7.78206398	    -14.89327618	     95.66323125	      1.66963836	     -6.72629741	    -18.64938915	      0.00000000	     28.77648882	     10.10217070	      0.64522129	     30.68417223	      0.53553983	      8.37603191	     -2.18780776	      0.00000000
      7.68000000	     -4.49502787	      5.91220055	      7.50303168	      2.32952715	      0.92489156	      1.07654061	     -1.03096146	     -8.07304772	    -14.35473562	     99.81519110	      1.74210373	     -5.74229427	    -18.57514900	      0.00000000	     29.91172616	     10.02555162	     -0.42572418	     34.77951800	      0.60701710	     10.07552272	     -1.24067846	      0.00000000
